<?xml version="1.0" encoding="utf-8"?>
<!-- Generator: Adobe Illustrator 26.0.0, SVG Export Plug-In . SVG Version: 6.00 Build 0)  -->
<svg version="1.1" id="Group_7" xmlns="http://www.w3.org/2000/svg" xmlns:xlink="http://www.w3.org/1999/xlink" x="0px" y="0px"
	 viewBox="0 0 182.2 31.7" style="enable-background:new 0 0 182.2 31.7;" xml:space="preserve">
<style type="text/css">
	.st0{fill:#FFFFFF;}
	.st1{fill:#BA0C2F;}
</style>
<g id="Group_148" transform="translate(-325.957 -117.907)">
	<path id="Path_265" class="st0" d="M343.6,136.9h-7.1V136l0.8-0.1c0.3,0,0.5-0.1,0.8-0.1c0.2-0.1,0.4-0.2,0.5-0.4s0.2-0.5,0.2-0.8
		v-6.2h-8v6.1c0,0.2,0,0.5,0.1,0.7s0.3,0.4,0.5,0.5s0.5,0.2,0.7,0.2c0.3,0.1,0.5,0.1,0.8,0.1v0.9H326V136l0.8-0.1
		c0.3,0,0.5-0.1,0.8-0.1c0.2-0.1,0.4-0.2,0.5-0.4s0.2-0.5,0.2-0.8V122c0-0.2-0.1-0.5-0.2-0.7s-0.3-0.4-0.5-0.5
		c-0.3-0.1-0.5-0.2-0.8-0.3c-0.3-0.1-0.5-0.1-0.8-0.1v-0.9h7.1v0.9c-0.3,0-0.6,0.1-0.8,0.1c-0.2,0-0.5,0.1-0.7,0.2s-0.4,0.3-0.5,0.5
		s-0.1,0.5-0.1,0.7v5.4h8V122c0-0.2-0.1-0.5-0.2-0.7s-0.3-0.4-0.5-0.5c-0.3-0.1-0.5-0.2-0.8-0.3c-0.3-0.1-0.5-0.1-0.8-0.1v-0.9h7.1
		v0.9c-0.3,0-0.6,0.1-0.8,0.1c-0.2,0-0.5,0.1-0.7,0.2s-0.4,0.3-0.5,0.5s-0.1,0.5-0.1,0.7v12.6c0,0.2,0,0.5,0.1,0.7s0.3,0.4,0.5,0.5
		s0.5,0.2,0.7,0.2c0.3,0.1,0.5,0.1,0.8,0.1L343.6,136.9z"/>
	<path id="Path_266" class="st0" d="M354.3,134.1c-0.5,0.9-1.2,1.7-2,2.3s-1.9,0.9-2.9,0.9c-0.9,0-1.7-0.2-2.5-0.5
		c-0.7-0.3-1.3-0.8-1.8-1.4c-0.5-0.6-0.8-1.3-1-2.1s-0.3-1.6-0.3-2.5c0-0.8,0.1-1.6,0.4-2.3c0.2-0.7,0.6-1.4,1.1-2s1-1.1,1.7-1.4
		c0.7-0.4,1.5-0.5,2.3-0.5s1.5,0.1,2.2,0.4c0.6,0.3,1.1,0.6,1.5,1.1s0.7,1,0.8,1.6c0.2,0.7,0.3,1.3,0.3,2v0.8h-7.9
		c0,0.7,0.1,1.5,0.2,2.2c0.1,0.6,0.4,1.2,0.7,1.7c0.3,0.5,0.7,0.9,1.2,1.1c0.6,0.3,1.2,0.4,1.8,0.4c0.7,0,1.3-0.2,1.8-0.5
		c0.6-0.5,1.2-1.1,1.5-1.8L354.3,134.1z M351.6,129.4c0-0.5,0-1-0.1-1.5s-0.2-0.9-0.4-1.3c-0.2-0.4-0.4-0.7-0.8-0.9
		c-0.4-0.2-0.8-0.4-1.2-0.4c-0.8,0-1.6,0.4-2.1,1.1c-0.6,0.9-0.9,1.9-0.9,3H351.6z"/>
	<path id="Path_267" class="st0" d="M363.8,126.4c0,0.4-0.1,0.8-0.3,1.1c-0.2,0.3-0.6,0.5-0.9,0.5c-0.4,0-0.7-0.1-1-0.4
		c-0.2-0.2-0.3-0.5-0.4-0.8c0-0.2,0-0.3,0-0.5c0-0.1,0.1-0.3,0.1-0.4c-0.5,0-0.9,0.2-1.3,0.5c-0.5,0.3-1,0.8-1.3,1.3v7
		c0,0.2,0,0.5,0.2,0.7c0.1,0.2,0.3,0.3,0.5,0.4c0.2,0.1,0.5,0.2,0.8,0.2s0.6,0.1,0.8,0.1v0.8h-6.3v-0.8h0.6c0.2,0,0.3,0,0.5-0.1
		s0.4-0.2,0.5-0.4s0.2-0.5,0.2-0.7v-7.5c0-0.3-0.1-0.5-0.2-0.7s-0.3-0.4-0.5-0.6c-0.2-0.1-0.3-0.2-0.5-0.2s-0.4-0.1-0.7-0.1V125
		l3.9-0.3l0.2,0.2v1.7h0.1c0.4-0.6,1-1.1,1.7-1.5c0.5-0.3,1.1-0.5,1.7-0.5c0.5,0,0.9,0.2,1.2,0.5
		C363.6,125.4,363.8,125.9,363.8,126.4z"/>
	<path id="Path_268" class="st0" d="M377.9,136.9h-5.8v-0.8c0.2,0,0.4,0,0.6,0s0.4,0,0.5-0.1c0.2-0.1,0.4-0.2,0.5-0.4
		s0.2-0.5,0.2-0.7v-6.2c0-0.7-0.2-1.4-0.6-2c-0.4-0.4-0.9-0.7-1.5-0.7c-0.4,0-0.8,0.1-1.2,0.2c-0.3,0.1-0.6,0.3-0.9,0.5
		c-0.2,0.2-0.5,0.4-0.6,0.6s-0.2,0.3-0.3,0.5v7c0,0.2,0,0.5,0.2,0.7c0.1,0.2,0.3,0.3,0.5,0.4c0.2,0.1,0.4,0.1,0.5,0.2
		c0.2,0,0.4,0.1,0.6,0.1v0.8h-5.8v-0.8h0.6c0.2,0,0.3,0,0.5-0.1s0.4-0.2,0.5-0.4s0.2-0.5,0.2-0.7v-7.5c0-0.3-0.1-0.5-0.2-0.8
		c-0.1-0.2-0.3-0.4-0.5-0.6c-0.2-0.1-0.3-0.2-0.5-0.2s-0.4-0.1-0.7-0.1V125l3.9-0.3l0.2,0.2v1.7h0.1c0.2-0.2,0.4-0.4,0.7-0.7
		c0.3-0.2,0.5-0.5,0.8-0.7s0.7-0.4,1.1-0.5s0.9-0.2,1.4-0.2c1-0.1,1.9,0.3,2.5,1.1c0.6,0.8,0.9,1.9,0.8,2.9v6.3c0,0.2,0,0.5,0.1,0.7
		s0.3,0.3,0.5,0.4c0.2,0.1,0.3,0.1,0.5,0.2c0.2,0,0.4,0.1,0.6,0.1L377.9,136.9z"/>
	<path id="Path_269" class="st0" d="M389.4,134.1c-0.5,0.9-1.2,1.7-2,2.3s-1.9,0.9-2.9,0.9c-0.9,0-1.7-0.2-2.5-0.5
		c-0.7-0.3-1.3-0.8-1.8-1.4c-0.5-0.6-0.8-1.3-1-2.1s-0.3-1.6-0.3-2.5c0-0.8,0.1-1.6,0.4-2.3c0.2-0.7,0.6-1.4,1.1-2s1-1.1,1.7-1.4
		c0.7-0.4,1.5-0.5,2.3-0.5s1.5,0.1,2.2,0.4c0.6,0.3,1.1,0.6,1.5,1.1s0.7,1,0.8,1.6c0.2,0.7,0.3,1.3,0.3,2v0.8h-7.9
		c0,0.7,0.1,1.5,0.2,2.2c0.1,0.6,0.4,1.2,0.7,1.7c0.3,0.5,0.7,0.9,1.2,1.1c0.6,0.3,1.2,0.4,1.8,0.4c0.7,0,1.3-0.2,1.8-0.5
		c0.6-0.5,1.2-1.1,1.5-1.8L389.4,134.1z M386.7,129.4c0-0.5,0-1-0.1-1.5s-0.2-0.9-0.4-1.3c-0.2-0.4-0.4-0.7-0.8-0.9
		c-0.4-0.2-0.8-0.4-1.2-0.4c-0.8,0-1.6,0.4-2.1,1.1c-0.6,0.9-0.9,1.9-0.9,3H386.7z"/>
	<path id="Path_270" class="st0" d="M412.7,136.9h-7.1V136l0.8-0.1c0.3,0,0.5-0.1,0.8-0.1c0.2-0.1,0.4-0.2,0.5-0.4s0.2-0.5,0.2-0.8
		v-6.2h-8v6.1c0,0.2,0,0.5,0.1,0.7s0.3,0.4,0.5,0.5s0.5,0.2,0.7,0.2c0.3,0.1,0.5,0.1,0.8,0.1v0.9h-7.1V136l0.8-0.1
		c0.3,0,0.5-0.1,0.8-0.1c0.2-0.1,0.4-0.2,0.5-0.4s0.2-0.5,0.2-0.8V122c0-0.2-0.1-0.5-0.2-0.7s-0.3-0.4-0.5-0.5
		c-0.3-0.1-0.5-0.2-0.8-0.3c-0.3-0.1-0.5-0.1-0.8-0.1v-0.9h7.1v0.9c-0.3,0-0.6,0.1-0.8,0.1c-0.2,0-0.5,0.1-0.7,0.2s-0.4,0.3-0.5,0.5
		s-0.1,0.5-0.1,0.7v5.4h8V122c0-0.2-0.1-0.5-0.2-0.7s-0.3-0.4-0.5-0.5c-0.3-0.1-0.5-0.2-0.8-0.3c-0.3-0.1-0.5-0.1-0.8-0.1v-0.9h7.1
		v0.9c-0.3,0-0.6,0.1-0.8,0.1c-0.2,0-0.5,0.1-0.7,0.2s-0.4,0.3-0.5,0.5s-0.1,0.5-0.1,0.7v12.6c0,0.2,0,0.5,0.1,0.7s0.3,0.4,0.5,0.5
		s0.5,0.2,0.7,0.2c0.3,0.1,0.5,0.1,0.8,0.1V136.9z"/>
	<path id="Path_271" class="st0" d="M419.6,136.9h-5.7v-0.8h0.6c0.2,0,0.3,0,0.5-0.1s0.4-0.2,0.5-0.4s0.2-0.5,0.2-0.7v-7.5
		c0-0.2-0.1-0.5-0.2-0.7s-0.3-0.4-0.5-0.5s-0.4-0.2-0.7-0.3c-0.3-0.1-0.5-0.1-0.8-0.1V125l4.2-0.3l0.2,0.2v9.9c0,0.2,0,0.5,0.2,0.7
		c0.1,0.2,0.3,0.3,0.5,0.4c0.2,0.1,0.3,0.1,0.5,0.2c0.2,0,0.4,0.1,0.6,0.1L419.6,136.9z M418.1,119.9c0,0.4-0.2,0.9-0.5,1.2
		c-0.3,0.3-0.7,0.5-1.1,0.5s-0.8-0.2-1.1-0.5c-0.3-0.3-0.5-0.7-0.5-1.1s0.2-0.9,0.5-1.2c0.3-0.3,0.7-0.5,1.1-0.5s0.8,0.2,1.1,0.5
		C417.9,119.1,418.1,119.5,418.1,119.9L418.1,119.9z"/>
	<path id="Path_272" class="st0" d="M426.1,136.9h-5.8v-0.8c0.2,0,0.4,0,0.6-0.1c0.2,0,0.3,0,0.5-0.1s0.4-0.2,0.5-0.4
		s0.2-0.5,0.2-0.7v-14c0-0.3-0.1-0.6-0.2-0.8c-0.1-0.2-0.3-0.4-0.5-0.6c-0.2-0.1-0.5-0.2-0.8-0.3c-0.3-0.1-0.6-0.1-0.9-0.1v-0.8
		l4.5-0.3l0.2,0.2v16.6c0,0.2,0,0.5,0.2,0.7c0.1,0.2,0.3,0.3,0.5,0.4c0.2,0.1,0.3,0.1,0.5,0.2c0.2,0,0.4,0.1,0.6,0.1L426.1,136.9z"
		/>
	<path id="Path_273" class="st0" d="M432.7,136.9h-5.8v-0.8c0.2,0,0.4,0,0.6-0.1c0.2,0,0.3,0,0.5-0.1s0.4-0.2,0.5-0.4
		s0.2-0.5,0.2-0.7v-14c0-0.3-0.1-0.6-0.2-0.8c-0.1-0.2-0.3-0.4-0.5-0.6c-0.2-0.1-0.5-0.2-0.8-0.3c-0.3-0.1-0.6-0.1-0.9-0.1v-0.8
		l4.5-0.3l0.2,0.2v16.6c0,0.2,0,0.5,0.2,0.7c0.1,0.2,0.3,0.3,0.5,0.4c0.2,0.1,0.3,0.1,0.5,0.2c0.2,0,0.4,0.1,0.6,0.1L432.7,136.9z"
		/>
	<path id="Path_274" class="st0" d="M451.1,128.9c0.4,0.4,0.6,0.8,0.8,1.3c0.2,0.5,0.3,1.1,0.3,1.7c0,1.5-0.6,2.8-1.7,3.8
		s-2.6,1.5-4.1,1.5c-0.8,0-1.5-0.1-2.3-0.4c-0.7-0.2-1.4-0.5-2-0.9l-0.5,0.9h-1l-0.2-6h1c0.2,0.7,0.4,1.3,0.7,2
		c0.3,0.6,0.6,1.2,1.1,1.7c0.4,0.5,0.9,0.9,1.5,1.2s1.3,0.4,1.9,0.4c0.5,0,1-0.1,1.4-0.2c0.4-0.1,0.7-0.3,1-0.6s0.5-0.6,0.6-1
		s0.2-0.8,0.2-1.3c0-1.5-0.9-2.8-2.3-3.3c-0.5-0.2-1.1-0.4-1.8-0.7s-1.3-0.5-1.7-0.7c-0.9-0.4-1.7-1-2.2-1.7
		c-0.6-0.8-0.8-1.8-0.8-2.8c0-0.6,0.1-1.3,0.4-1.9s0.7-1.1,1.1-1.5c0.5-0.4,1-0.8,1.6-1s1.3-0.4,2-0.4s1.4,0.1,2.1,0.4
		c0.6,0.2,1.2,0.5,1.7,0.9l0.5-0.8h1l0.1,5.8h-1c-0.2-0.7-0.4-1.3-0.6-1.9s-0.5-1.1-0.9-1.6c-0.3-0.5-0.8-0.9-1.3-1.1
		c-0.6-0.3-1.2-0.4-1.8-0.4c-0.7,0-1.4,0.3-1.9,0.7c-0.5,0.5-0.8,1.1-0.8,1.8c0,0.7,0.2,1.3,0.5,1.9c0.4,0.5,0.9,1,1.5,1.2
		c0.6,0.3,1.1,0.5,1.7,0.7s1.1,0.4,1.6,0.7c0.5,0.2,0.9,0.5,1.4,0.7C450.3,128.2,450.7,128.5,451.1,128.9z"/>
	<path id="Path_275" class="st0" d="M458.9,137.2c-1.5,0.1-3-0.6-4-1.7c-1-1.3-1.5-3-1.5-4.7c0-0.8,0.1-1.6,0.4-2.4
		c0.3-0.7,0.6-1.4,1.1-2s1.1-1.1,1.8-1.4c0.7-0.4,1.5-0.5,2.3-0.5c1,0,2,0.3,2.8,0.9c0.7,0.6,1.1,1.4,1.1,2.3c0,0.4-0.1,0.8-0.3,1.1
		c-0.2,0.3-0.6,0.5-1,0.5s-0.8-0.1-1.1-0.4c-0.2-0.2-0.4-0.5-0.4-0.8c0-0.4,0-0.8,0.1-1.1c0.1-0.3,0.1-0.6,0.2-0.9
		c-0.1-0.2-0.4-0.4-0.6-0.5c-0.3-0.1-0.6-0.1-0.9-0.1c-0.4,0-0.8,0.1-1.1,0.3c-0.4,0.2-0.8,0.5-1,0.9c-0.3,0.5-0.6,1.1-0.7,1.7
		c-0.2,0.8-0.3,1.7-0.3,2.5c-0.1,1.3,0.3,2.6,1,3.7c0.6,0.9,1.5,1.4,2.6,1.4c0.7,0,1.4-0.2,2-0.6c0.6-0.5,1.1-1.1,1.5-1.7l0.8,0.5
		c-0.5,0.9-1.2,1.7-2.1,2.3C460.8,136.9,459.9,137.2,458.9,137.2z"/>
	<path id="Path_276" class="st0" d="M477.5,136.9h-5.8v-0.8c0.2,0,0.4,0,0.6,0s0.4,0,0.6-0.1s0.4-0.2,0.5-0.4s0.2-0.5,0.2-0.7v-6.2
		c0-0.7-0.2-1.4-0.6-2c-0.4-0.4-0.9-0.7-1.5-0.7c-0.4,0-0.8,0.1-1.2,0.2c-0.3,0.1-0.7,0.3-1,0.5c-0.2,0.2-0.5,0.4-0.6,0.6
		s-0.3,0.4-0.3,0.5v7c0,0.2,0,0.5,0.2,0.7c0.1,0.2,0.3,0.3,0.5,0.4c0.2,0.1,0.4,0.1,0.5,0.2c0.2,0,0.4,0.1,0.6,0.1v0.8h-5.8v-0.8
		c0.2,0,0.4,0,0.6-0.1c0.2,0,0.3,0,0.5-0.1s0.4-0.2,0.5-0.4s0.2-0.5,0.2-0.7v-14.1c0-0.3-0.1-0.6-0.2-0.8c-0.1-0.2-0.3-0.5-0.5-0.6
		s-0.5-0.2-0.8-0.2c-0.4,0-0.7-0.1-0.9-0.1v-0.8l4.4-0.3l0.2,0.2v8.4l0,0c0.3-0.3,0.5-0.5,0.7-0.7c0.3-0.2,0.6-0.5,0.9-0.7
		s0.7-0.4,1.1-0.5c0.5-0.1,0.9-0.2,1.4-0.2c0.9-0.1,1.8,0.3,2.4,1c0.6,0.9,0.9,1.9,0.9,3v6.3c0,0.2,0,0.5,0.2,0.7
		c0.1,0.2,0.3,0.3,0.5,0.4c0.2,0.1,0.3,0.1,0.5,0.2c0.2,0,0.4,0.1,0.6,0.1L477.5,136.9z"/>
	<path id="Path_277" class="st0" d="M489.1,130.7c0,0.9-0.1,1.7-0.4,2.5c-0.2,0.8-0.6,1.5-1.1,2.1s-1.2,1.1-1.9,1.5
		c-0.8,0.3-1.6,0.5-2.5,0.5c-1.5,0-2.9-0.6-4-1.7c-0.5-0.6-1-1.3-1.2-2c-0.3-0.8-0.5-1.8-0.5-2.7c-0.1-1.7,0.5-3.4,1.6-4.6
		c2.2-2.3,5.9-2.4,8.3-0.2l0.1,0.1C488.6,127.4,489.1,129.1,489.1,130.7z M486.6,130.8c0-0.7-0.1-1.3-0.2-1.9
		c-0.1-0.6-0.3-1.2-0.5-1.7s-0.6-0.9-1-1.2c-0.4-0.3-1-0.5-1.5-0.5c-0.6,0-1.1,0.1-1.6,0.5c-0.5,0.3-0.8,0.8-1.1,1.3
		c-0.3,0.5-0.5,1.1-0.5,1.7c-0.1,0.6-0.2,1.2-0.2,1.9s0.1,1.5,0.2,2.2c0.1,0.6,0.3,1.2,0.6,1.8c0.2,0.5,0.6,0.9,1,1.2
		c0.5,0.3,1,0.5,1.5,0.4c1,0,1.9-0.6,2.4-1.5C486.4,133.6,486.7,132.2,486.6,130.8L486.6,130.8z"/>
	<path id="Path_278" class="st0" d="M501.9,130.7c0,0.9-0.1,1.7-0.4,2.5c-0.2,0.8-0.6,1.5-1.1,2.1s-1.2,1.1-1.9,1.5
		c-0.8,0.3-1.6,0.5-2.5,0.5c-1.5,0-2.9-0.6-4-1.7c-0.5-0.6-1-1.3-1.2-2c-0.3-0.8-0.5-1.8-0.5-2.7c-0.1-1.7,0.5-3.4,1.6-4.6
		c2.2-2.3,5.9-2.4,8.3-0.2l0.1,0.1C501.3,127.4,501.9,129.1,501.9,130.7z M499.4,130.8c0-0.7-0.1-1.3-0.2-1.9
		c-0.1-0.6-0.3-1.2-0.5-1.7s-0.6-0.9-1-1.2c-0.4-0.3-1-0.5-1.5-0.5c-0.6,0-1.1,0.1-1.6,0.5c-0.5,0.3-0.8,0.8-1.1,1.3
		c-0.3,0.5-0.5,1.1-0.5,1.7c-0.1,0.6-0.2,1.2-0.2,1.9s0.1,1.5,0.2,2.2c0.1,0.6,0.3,1.2,0.6,1.8c0.2,0.5,0.6,0.9,1,1.2
		c0.5,0.3,1,0.5,1.5,0.4c1,0,1.9-0.6,2.4-1.5C499.1,133.6,499.4,132.2,499.4,130.8L499.4,130.8z"/>
	<path id="Path_279" class="st0" d="M508.2,136.9h-5.8v-0.8c0.2,0,0.4,0,0.6-0.1c0.2,0,0.3,0,0.5-0.1s0.4-0.2,0.5-0.4
		s0.2-0.5,0.2-0.7v-14c0-0.3-0.1-0.6-0.2-0.8c-0.1-0.2-0.3-0.4-0.5-0.6c-0.2-0.1-0.5-0.2-0.8-0.3c-0.3-0.1-0.6-0.1-0.9-0.1v-0.8
		l4.5-0.3l0.2,0.2v16.6c0,0.2,0,0.5,0.2,0.7c0.1,0.2,0.3,0.3,0.5,0.4c0.2,0.1,0.3,0.1,0.5,0.2c0.2,0,0.4,0.1,0.6,0.1L508.2,136.9z"
		/>
	<g id="Group_126" transform="translate(326.738 142.444)">
		<path id="Path_280" class="st0" d="M5.5,4.9L5.4,7H0V6.7c0.1,0,0.2,0,0.3,0s0.2,0,0.3-0.1c0.1,0,0.2-0.1,0.2-0.2s0.1-0.2,0.1-0.3
			V1c0-0.1,0-0.2-0.1-0.3c0-0.1-0.1-0.2-0.2-0.2S0.4,0.4,0.3,0.4S0.1,0.4,0,0.3V0h2.9v0.4c-0.1,0-0.2,0-0.4,0c-0.1,0-0.2,0-0.3,0.1
			C2.1,0.5,2.1,0.6,2,0.7C2,0.8,2,0.9,2,1v4.7C2,5.9,2,6,2,6.2c0,0.1,0.1,0.2,0.1,0.3c0.1,0.1,0.2,0.1,0.3,0.1c0.2,0,0.4,0,0.6,0
			c0.1,0,0.2,0,0.4,0c0.1,0,0.2,0,0.4,0c0.1,0,0.2,0,0.3-0.1c0.1,0,0.2-0.1,0.2-0.1C4.5,6.2,4.6,6,4.8,5.7C5,5.4,5.1,5.2,5.2,4.9
			H5.5z"/>
		<path id="Path_281" class="st0" d="M10.5,4.5c0,0.3-0.1,0.7-0.2,1c-0.1,0.3-0.2,0.6-0.5,0.8C9.7,6.6,9.4,6.8,9.1,7
			c-0.3,0.1-0.6,0.2-1,0.2C7.5,7.2,7,6.9,6.5,6.5C6.3,6.2,6.1,6,6,5.7C5.9,5.3,5.8,5,5.8,4.6c0-0.7,0.2-1.3,0.7-1.9
			c0.9-0.9,2.4-1,3.3-0.1l0,0C10.3,3.2,10.5,3.8,10.5,4.5z M9.5,4.5c0-0.3,0-0.5-0.1-0.8c0-0.2-0.1-0.5-0.2-0.7
			C9.1,2.9,9,2.7,8.8,2.6C8.6,2.4,8.4,2.4,8.2,2.4s-0.4,0-0.6,0.2C7.4,2.7,7.2,2.9,7.1,3.1C7,3.3,7,3.5,6.9,3.8
			c0,0.2-0.1,0.5-0.1,0.7c0,0.3,0,0.6,0.1,0.9c0,0.3,0.1,0.5,0.2,0.7s0.2,0.4,0.4,0.5C7.8,6.7,8,6.8,8.2,6.8c0.4,0,0.8-0.2,1-0.6
			C9.4,5.7,9.5,5.1,9.5,4.5L9.5,4.5z"/>
		<path id="Path_282" class="st0" d="M15.9,2.4c-0.1,0-0.3,0.1-0.4,0.2c-0.2,0.1-0.3,0.3-0.3,0.4c-0.2,0.4-0.4,0.9-0.6,1.4
			s-0.4,1-0.6,1.5c-0.1,0.2-0.1,0.3-0.2,0.5S13.7,6.8,13.6,7h-0.4c-0.3-0.8-0.6-1.5-0.8-2.1c-0.3-0.6-0.5-1.3-0.8-2
			c-0.1-0.1-0.2-0.3-0.3-0.4c-0.1-0.1-0.3-0.1-0.4-0.2V2.1H13v0.3c-0.1,0-0.2,0-0.4,0.1c-0.1,0-0.2,0.1-0.2,0.2v0.1v0.1
			c0.1,0.3,0.3,0.8,0.6,1.4s0.4,1.1,0.6,1.5c0.1-0.3,0.3-0.6,0.4-1.1c0.2-0.4,0.4-0.9,0.6-1.4c0-0.1,0.1-0.2,0.1-0.2
			c0-0.1,0-0.2,0-0.2c0-0.1,0-0.1-0.1-0.1s-0.1-0.1-0.2-0.1c-0.1,0-0.1-0.1-0.2-0.1c-0.1,0-0.1,0-0.2,0V2.1h1.8L15.9,2.4z"/>
		<path id="Path_283" class="st0" d="M20.4,5.9c-0.2,0.4-0.5,0.7-0.8,0.9c-0.3,0.2-0.7,0.4-1.2,0.3c-0.3,0-0.7-0.1-1-0.2
			s-0.5-0.3-0.7-0.6c-0.2-0.2-0.3-0.5-0.4-0.8s-0.1-0.7-0.1-1s0-0.6,0.1-0.9s0.2-0.6,0.4-0.8c0.2-0.2,0.4-0.4,0.7-0.6
			C17.7,2.1,18,2,18.3,2s0.6,0,0.9,0.2c0.2,0.1,0.4,0.3,0.6,0.5C20,2.8,20.1,3,20.1,3.3c0.1,0.3,0.1,0.5,0.1,0.8v0.3H17
			c0,0.3,0,0.6,0.1,0.9c0.1,0.2,0.1,0.5,0.3,0.7c0.1,0.2,0.3,0.3,0.5,0.5c0.2,0.1,0.5,0.2,0.7,0.2c0.3,0,0.5-0.1,0.7-0.2
			c0.3-0.2,0.5-0.5,0.6-0.7L20.4,5.9z M19.3,4c0-0.2,0-0.4,0-0.6c0-0.2-0.1-0.4-0.1-0.5c-0.1-0.1-0.2-0.3-0.3-0.4
			c-0.1-0.1-0.3-0.2-0.5-0.1c-0.3,0-0.7,0.2-0.8,0.4c-0.2,0.4-0.4,0.8-0.4,1.2H19.3z"/>
	</g>
	<g id="Group_127" transform="translate(357.58 142.291)">
		<path id="Path_284" class="st0" d="M3.1,7.3c-0.4,0-0.8-0.1-1.2-0.2c-0.4-0.2-0.7-0.4-1-0.7C0.6,6,0.4,5.7,0.3,5.2
			C0.1,4.8,0,4.2,0,3.7s0.1-1,0.3-1.5C0.4,1.8,0.6,1.4,1,1c0.3-0.3,0.6-0.6,1-0.8C2.7,0,3.5-0.1,4.2,0.1C4.5,0.2,4.7,0.3,5,0.5
			l0.2-0.3h0.4v2.5H5.2C5.1,2.4,5.1,2.1,5,1.9C4.9,1.6,4.8,1.4,4.6,1.1C4.5,0.9,4.3,0.7,4.1,0.6C3.8,0.5,3.6,0.4,3.3,0.4
			S2.7,0.5,2.5,0.6C2.2,0.8,1.9,1,1.8,1.3C1.6,1.6,1.4,2,1.4,2.3C1.2,2.7,1.2,3.2,1.2,3.7c0,0.4,0.1,0.8,0.2,1.2s0.3,0.7,0.5,1
			C2,6.1,2.2,6.4,2.5,6.5c0.3,0.2,0.6,0.2,0.9,0.2c0.2,0,0.5,0,0.7-0.1c0.2-0.1,0.4-0.2,0.6-0.3C4.9,6.2,5.1,6,5.2,5.8
			s0.2-0.4,0.3-0.6l0.4,0.2C5.7,6,5.3,6.5,4.8,6.9C4.3,7.2,3.7,7.3,3.1,7.3z"/>
	</g>
	<g id="Group_128" transform="translate(363.96 144.444)">
		<path id="Path_285" class="st0" d="M4.5,4.9C4.3,5,4.2,5,4.1,5.1c-0.1,0-0.3,0-0.4,0C3.5,5.1,3.3,5,3.1,4.9
			C2.9,4.8,2.8,4.6,2.8,4.4l0,0C2.6,4.6,2.4,4.8,2.1,4.9C1.8,5.1,1.5,5.1,1.2,5.1S0.6,5,0.4,4.8C0.1,4.6,0,4.2,0,3.9
			c0-0.2,0-0.3,0.1-0.5c0-0.1,0.1-0.3,0.2-0.4s0.2-0.2,0.3-0.3c0.2,0,0.3-0.1,0.4-0.1c0.1-0.1,0.4-0.2,0.9-0.3
			C2.2,2.2,2.5,2,2.8,1.9V1.4c0-0.1,0-0.2,0-0.2c0-0.1-0.1-0.2-0.1-0.3C2.6,0.7,2.5,0.6,2.4,0.5C2.2,0.4,2.1,0.4,1.9,0.4
			c-0.1,0-0.3,0-0.4,0.1c-0.1,0-0.2,0.1-0.3,0.2c0,0.1,0,0.2,0,0.3s0,0.2,0,0.4c0,0.1-0.1,0.2-0.2,0.3c0,0-0.1,0-0.3,0
			c-0.1,0-0.3-0.1-0.4-0.2c-0.2-0.3-0.1-0.6,0-0.8c0.1-0.1,0.3-0.3,0.4-0.4C1,0.2,1.1,0.2,1.3,0.1S1.7,0,1.9,0s0.5,0,0.7,0.1
			c0.2,0,0.4,0.1,0.5,0.2c0.2,0.1,0.3,0.3,0.4,0.5c0.1,0.3,0.1,0.5,0.1,0.8c0,0.5,0,0.9,0,1.3s0,0.8,0,1.2c0,0.1,0,0.2,0.1,0.3
			c0,0.1,0.1,0.1,0.2,0.2c0.1,0,0.2,0.1,0.2,0c0.1,0,0.2,0,0.3,0L4.5,4.9z M2.8,2.3C2.5,2.4,2.3,2.5,2.1,2.6c-0.2,0-0.4,0.1-0.6,0.3
			C1.3,3,1.2,3.1,1.1,3.3C1,3.4,1,3.6,1,3.8s0,0.4,0.2,0.6c0.1,0.1,0.3,0.2,0.5,0.2s0.4-0.1,0.6-0.2C2.5,4.3,2.6,4.2,2.8,4V2.3z"/>
		<path id="Path_286" class="st0" d="M8.6,0.8c0,0.2,0,0.3-0.1,0.4C8.4,1.3,8.3,1.4,8.1,1.4s-0.3,0-0.4-0.1C7.6,1.2,7.6,1.1,7.6,0.9
			c0-0.1,0-0.1,0-0.2s0-0.1,0-0.2c-0.2,0-0.4,0.1-0.5,0.2C6.9,0.9,6.7,1.1,6.6,1.3v2.8c0,0.1,0,0.2,0.1,0.3c0,0.1,0.1,0.1,0.2,0.2
			c0.1,0,0.2,0.1,0.3,0.1c0.1,0,0.2,0,0.3,0V5H5V4.7h0.2c0.1,0,0.1,0,0.2,0s0.2-0.1,0.2-0.2s0.1-0.2,0.1-0.3v-3c0-0.1,0-0.2-0.1-0.3
			c0-0.1-0.1-0.2-0.2-0.2S5.3,0.6,5.2,0.6s-0.2,0-0.3,0V0.2l1.6-0.1l0.1,0.1v0.7l0,0C6.8,0.6,7,0.4,7.2,0.2C7.4,0.1,7.7,0,7.9,0
			s0.4,0.1,0.5,0.2C8.6,0.4,8.6,0.6,8.6,0.8z"/>
		<path id="Path_287" class="st0" d="M13.3,3.9c-0.2,0.4-0.5,0.7-0.8,0.9c-0.3,0.2-0.7,0.4-1.2,0.3c-0.3,0-0.7-0.1-1-0.2
			C10,4.8,9.8,4.6,9.6,4.4C9.4,4.1,9.2,3.8,9.2,3.5C9.1,3.2,9,2.9,9,2.5c0-0.3,0-0.6,0.1-0.9C9.3,1.3,9.4,1,9.6,0.8
			c0.2-0.2,0.4-0.4,0.7-0.6C10.6,0.1,10.9,0,11.2,0s0.6,0,0.9,0.2c0.2,0.1,0.4,0.3,0.6,0.5C12.9,0.8,13,1,13,1.3
			c0.1,0.3,0.1,0.5,0.1,0.8v0.3H10c0,0.3,0,0.6,0.1,0.9c0.1,0.2,0.1,0.5,0.3,0.7c0.1,0.2,0.3,0.3,0.5,0.5c0.2,0.1,0.5,0.2,0.7,0.2
			c0.3,0,0.5-0.1,0.7-0.2c0.3-0.2,0.5-0.5,0.6-0.7L13.3,3.9z M12.2,2c0-0.2,0-0.4,0-0.6S12.1,1,12.1,0.9c-0.1-0.1-0.2-0.3-0.3-0.4
			s-0.3-0.2-0.5-0.1c-0.3,0-0.6,0.2-0.8,0.4C10.1,1.2,10,1.6,10,2H12.2z"/>
	</g>
	<path id="Path_288" class="st0" d="M393.6,147.4l-0.1,2.1h-5.7v-0.4c0.1,0,0.2,0,0.4,0c0.1,0,0.2,0,0.3-0.1c0.1,0,0.2-0.1,0.2-0.2
		c0-0.1,0.1-0.2,0.1-0.3v-5c0-0.1,0-0.2-0.1-0.3c0-0.1-0.1-0.2-0.2-0.2c-0.1-0.1-0.2-0.1-0.4-0.1c-0.1,0-0.2,0-0.4-0.1v-0.4h5.3v1.7
		h-0.4c-0.1-0.3-0.2-0.6-0.4-0.8c-0.1-0.2-0.4-0.4-0.6-0.5c-0.1,0-0.2,0-0.4,0s-0.3,0-0.5,0h-1.1v2.8h0.8c0.2,0,0.4,0,0.5-0.1
		s0.2-0.1,0.3-0.2c0.1-0.1,0.1-0.2,0.2-0.4c0-0.1,0.1-0.3,0.1-0.5h0.4v2.7h-0.4c0-0.2,0-0.3-0.1-0.5c0-0.1-0.1-0.3-0.2-0.4
		c-0.1-0.1-0.2-0.2-0.3-0.3c-0.2,0-0.3-0.1-0.5-0.1h-0.8v2.1c0,0.2,0,0.3,0,0.5c0,0.1,0.1,0.2,0.2,0.3s0.2,0.1,0.3,0.1
		c0.2,0,0.4,0,0.6,0h0.4c0.1,0,0.3,0,0.4,0s0.3,0,0.4-0.1c0.1,0,0.2-0.1,0.3-0.1c0.2-0.2,0.3-0.5,0.5-0.7c0.1-0.2,0.2-0.5,0.3-0.7
		L393.6,147.4z"/>
	<path id="Path_289" class="st0" d="M398.8,149.5h-2.2v-0.3c0.1,0,0.3,0,0.4,0s0.2-0.1,0.2-0.1V149c0-0.1-0.1-0.1-0.1-0.2
		c-0.1-0.1-0.2-0.3-0.3-0.5s-0.3-0.5-0.5-0.8c-0.2,0.2-0.3,0.4-0.5,0.6s-0.3,0.4-0.4,0.6l-0.1,0.1v0.1c0,0.1,0,0.1,0.1,0.2
		c0.1,0.1,0.3,0.1,0.4,0.1v0.3H394v-0.3c0.2-0.1,0.4-0.1,0.5-0.2c0.1-0.1,0.3-0.2,0.4-0.3s0.2-0.3,0.4-0.5c0.2-0.2,0.4-0.5,0.7-0.9
		c-0.2-0.2-0.4-0.5-0.6-0.9c-0.2-0.3-0.4-0.6-0.6-0.9c-0.1-0.1-0.2-0.2-0.3-0.3c-0.1-0.1-0.3-0.1-0.5-0.1v-0.3h2.1v0.3
		c-0.1,0-0.2,0-0.3,0c-0.1,0-0.1,0-0.1,0.1v0.1c0,0,0,0.1,0.1,0.1c0.1,0.1,0.2,0.3,0.3,0.5s0.3,0.5,0.5,0.7l0.4-0.6
		c0.2-0.2,0.3-0.4,0.4-0.6v-0.1v-0.1c0-0.1-0.1-0.1-0.2-0.2c-0.1,0-0.2-0.1-0.3-0.1v-0.3h1.8v0.3c-0.2,0-0.4,0.1-0.6,0.2
		c-0.1,0.1-0.3,0.2-0.4,0.3s-0.2,0.3-0.4,0.5l-0.6,0.8c0.3,0.4,0.5,0.8,0.7,1c0.2,0.3,0.4,0.5,0.6,0.8c0.1,0.1,0.2,0.2,0.3,0.3
		c0.1,0.1,0.3,0.1,0.5,0.1V149.5z"/>
	<path id="Path_290" class="st0" d="M401.4,149.6c-0.6,0-1.2-0.2-1.6-0.7s-0.6-1.2-0.6-1.9c0-0.3,0.1-0.7,0.2-1s0.3-0.6,0.5-0.8
		s0.4-0.4,0.7-0.6c0.3-0.1,0.6-0.2,0.9-0.2c0.4,0,0.8,0.1,1.1,0.3c0.3,0.2,0.5,0.6,0.4,0.9c0,0.2,0,0.3-0.1,0.4
		c-0.1,0.1-0.2,0.2-0.4,0.2c-0.2,0-0.3,0-0.4-0.1s-0.2-0.2-0.2-0.3c0-0.2,0-0.3,0.1-0.5c0-0.1,0.1-0.2,0.1-0.3
		c-0.1-0.1-0.1-0.2-0.3-0.2c-0.1,0-0.2-0.1-0.4-0.1c-0.2,0-0.3,0-0.4,0.1c-0.2,0.1-0.3,0.2-0.4,0.4s-0.2,0.4-0.3,0.7
		c-0.1,0.3-0.1,0.7-0.1,1c0,0.5,0.1,1.1,0.4,1.5c0.2,0.4,0.6,0.6,1,0.6c0.3,0,0.6-0.1,0.8-0.2c0.2-0.2,0.4-0.4,0.6-0.7l0.3,0.2
		c-0.2,0.4-0.5,0.7-0.8,0.9C402.1,149.5,401.7,149.6,401.4,149.6z"/>
	<path id="Path_291" class="st0" d="M407.9,148.3c-0.2,0.4-0.5,0.7-0.8,0.9s-0.7,0.4-1.2,0.3c-0.3,0-0.7-0.1-1-0.2
		c-0.3-0.1-0.5-0.3-0.7-0.6c-0.2-0.2-0.3-0.5-0.4-0.8s-0.1-0.7-0.1-1s0-0.6,0.1-0.9c0.1-0.3,0.2-0.6,0.4-0.8
		c0.2-0.2,0.4-0.4,0.7-0.6c0.3-0.1,0.6-0.2,0.9-0.2s0.6,0,0.9,0.2c0.2,0.1,0.4,0.3,0.6,0.5s0.3,0.4,0.3,0.7c0.1,0.3,0.1,0.5,0.1,0.8
		v0.3h-3.2c0,0.3,0,0.6,0.1,0.9c0.1,0.2,0.1,0.5,0.3,0.7c0.1,0.2,0.3,0.3,0.5,0.5c0.2,0.1,0.5,0.2,0.7,0.2c0.3,0,0.5-0.1,0.7-0.2
		c0.3-0.2,0.5-0.5,0.6-0.7L407.9,148.3z M406.8,146.4c0-0.2,0-0.4,0-0.6c0-0.2-0.1-0.4-0.1-0.5c-0.1-0.1-0.2-0.3-0.3-0.4
		c-0.1-0.1-0.3-0.2-0.5-0.1c-0.3,0-0.7,0.2-0.8,0.4c-0.2,0.4-0.4,0.8-0.4,1.2L406.8,146.4z"/>
	<path id="Path_292" class="st0" d="M410.7,149.4h-2.3v-0.3h0.2c0.1,0,0.1,0,0.2,0s0.2-0.1,0.2-0.2c0-0.1,0.1-0.2,0.1-0.3V143
		c0-0.1,0-0.2-0.1-0.3c0-0.1-0.1-0.2-0.2-0.2c-0.1-0.1-0.2-0.1-0.3-0.1c-0.1,0-0.2,0-0.4-0.1V142l1.8-0.1l0.1,0.1v6.7
		c0,0.1,0,0.2,0.1,0.3c0,0.1,0.1,0.1,0.2,0.2c0.1,0,0.1,0.1,0.2,0.1s0.2,0,0.2,0L410.7,149.4z"/>
	<path id="Path_293" class="st0" d="M413.5,149.4h-2.3v-0.3h0.2c0.1,0,0.1,0,0.2,0s0.2-0.1,0.2-0.2c0-0.1,0.1-0.2,0.1-0.3V143
		c0-0.1,0-0.2-0.1-0.3c0-0.1-0.1-0.2-0.2-0.2c-0.1-0.1-0.2-0.1-0.3-0.1c-0.1,0-0.2,0-0.4-0.1V142l1.8-0.1l0.1,0.1v6.7
		c0,0.1,0,0.2,0.1,0.3c0,0.1,0.1,0.1,0.2,0.2c0.1,0,0.1,0.1,0.2,0.1s0.2,0,0.2,0L413.5,149.4z"/>
	<path id="Path_294" class="st0" d="M418.4,148.3c-0.2,0.4-0.5,0.7-0.8,0.9s-0.7,0.4-1.2,0.3c-0.3,0-0.7-0.1-1-0.2
		c-0.3-0.1-0.5-0.3-0.7-0.6c-0.2-0.2-0.3-0.5-0.4-0.8s-0.1-0.7-0.1-1s0-0.6,0.1-0.9c0.1-0.3,0.2-0.6,0.4-0.8
		c0.2-0.2,0.4-0.4,0.7-0.6c0.3-0.1,0.6-0.2,0.9-0.2s0.6,0,0.9,0.2c0.2,0.1,0.4,0.3,0.6,0.5s0.3,0.4,0.3,0.7c0.1,0.3,0.1,0.5,0.1,0.8
		v0.3H415c0,0.3,0,0.6,0.1,0.9c0.1,0.2,0.1,0.5,0.3,0.7c0.1,0.2,0.3,0.3,0.5,0.5c0.2,0.1,0.5,0.2,0.7,0.2c0.3,0,0.5-0.1,0.7-0.2
		c0.3-0.2,0.5-0.5,0.6-0.7L418.4,148.3z M417.3,146.4c0-0.2,0-0.4,0-0.6c0-0.2-0.1-0.4-0.1-0.5c-0.1-0.1-0.2-0.3-0.3-0.4
		c-0.1-0.1-0.3-0.2-0.5-0.1c-0.3,0-0.6,0.2-0.8,0.4c-0.2,0.4-0.4,0.8-0.4,1.2L417.3,146.4z"/>
	<path id="Path_295" class="st0" d="M424.2,149.5h-2.3v-0.3h0.2c0.1,0,0.1,0,0.2,0s0.2-0.1,0.2-0.2c0-0.1,0.1-0.2,0.1-0.3v-2.5
		c0-0.3-0.1-0.6-0.2-0.8s-0.4-0.3-0.6-0.3s-0.3,0-0.5,0.1c-0.1,0-0.3,0.1-0.4,0.2c-0.1,0.1-0.2,0.1-0.3,0.2c0,0.1-0.1,0.1-0.1,0.2
		v2.8c0,0.1,0,0.2,0.1,0.3c0,0.1,0.1,0.1,0.2,0.2c0.1,0,0.1,0.1,0.2,0.1s0.2,0,0.2,0v0.3h-2.3v-0.3h0.2c0.1,0,0.1,0,0.2,0
		s0.2-0.1,0.2-0.2c0-0.1,0.1-0.2,0.1-0.3v-3c0-0.1,0-0.2-0.1-0.3c0-0.1-0.1-0.2-0.2-0.2s-0.1-0.1-0.2-0.1s-0.2,0-0.3,0v-0.3l1.6-0.1
		l0.1,0.1v0.7l0,0c0.1-0.1,0.2-0.2,0.3-0.3c0.1-0.1,0.2-0.2,0.3-0.3c0.1-0.1,0.3-0.2,0.4-0.2c0.2-0.1,0.4-0.1,0.6-0.1
		c0.4,0,0.8,0.1,1,0.4c0.2,0.3,0.4,0.7,0.3,1.2v2.5c0,0.1,0,0.2,0.1,0.3c0,0.1,0.1,0.1,0.2,0.2c0.1,0,0.1,0.1,0.2,0.1s0.2,0,0.2,0
		L424.2,149.5z"/>
	<path id="Path_296" class="st0" d="M427,149.6c-0.6,0-1.2-0.2-1.6-0.7s-0.6-1.2-0.6-1.9c0-0.3,0.1-0.7,0.2-1s0.3-0.6,0.5-0.8
		s0.4-0.4,0.7-0.6c0.3-0.1,0.6-0.2,0.9-0.2c0.4,0,0.8,0.1,1.1,0.3c0.3,0.2,0.5,0.6,0.4,0.9c0,0.2,0,0.3-0.1,0.4
		c-0.1,0.1-0.2,0.2-0.4,0.2c-0.2,0-0.3,0-0.4-0.1s-0.2-0.2-0.2-0.3c0-0.2,0-0.3,0.1-0.5c0-0.1,0.1-0.2,0.1-0.3
		c-0.1-0.1-0.1-0.2-0.3-0.2c-0.1,0-0.2-0.1-0.4-0.1c-0.2,0-0.3,0-0.4,0.1c-0.2,0.1-0.3,0.2-0.4,0.4s-0.2,0.4-0.3,0.7
		c-0.1,0.3-0.1,0.7-0.1,1c0,0.5,0.1,1.1,0.4,1.5c0.2,0.4,0.6,0.6,1,0.6c0.3,0,0.6-0.1,0.8-0.2c0.2-0.2,0.4-0.4,0.6-0.7l0.3,0.2
		c-0.2,0.4-0.5,0.7-0.8,0.9C427.7,149.5,427.4,149.6,427,149.6z"/>
	<path id="Path_297" class="st0" d="M433.5,148.3c-0.2,0.4-0.5,0.7-0.8,0.9s-0.7,0.4-1.2,0.3c-0.3,0-0.7-0.1-1-0.2
		c-0.3-0.1-0.5-0.3-0.7-0.6c-0.2-0.2-0.3-0.5-0.4-0.8s-0.1-0.7-0.1-1s0-0.6,0.1-0.9c0.1-0.3,0.2-0.6,0.4-0.8
		c0.2-0.2,0.4-0.4,0.7-0.6c0.3-0.1,0.6-0.2,0.9-0.2s0.6,0,0.9,0.2c0.2,0.1,0.4,0.3,0.6,0.5s0.3,0.4,0.3,0.7c0.1,0.3,0.1,0.5,0.1,0.8
		v0.3h-3.2c0,0.3,0,0.6,0.1,0.9c0.1,0.2,0.1,0.5,0.3,0.7c0.1,0.2,0.3,0.3,0.5,0.5c0.2,0.1,0.5,0.2,0.7,0.2c0.3,0,0.5-0.1,0.7-0.2
		c0.3-0.2,0.5-0.5,0.6-0.7L433.5,148.3z M432.4,146.4c0-0.2,0-0.4,0-0.6c0-0.2-0.1-0.4-0.1-0.5c-0.1-0.1-0.2-0.3-0.3-0.4
		c-0.1-0.1-0.3-0.2-0.5-0.1c-0.3,0-0.7,0.2-0.8,0.4c-0.2,0.4-0.4,0.8-0.4,1.2L432.4,146.4z"/>
	<path id="Path_298" class="st1" d="M352.3,147.9c0.9,0,1.6-0.7,1.6-1.5c0-0.9-0.7-1.6-1.5-1.6c-0.9,0-1.6,0.7-1.6,1.5l0,0
		C350.8,147.2,351.5,147.9,352.3,147.9L352.3,147.9"/>
	<path id="Path_299" class="st1" d="M382.3,147.9c0.9,0,1.6-0.7,1.6-1.5s-0.7-1.6-1.5-1.6c-0.9,0-1.6,0.7-1.6,1.5l0,0
		C380.7,147.2,381.4,147.9,382.3,147.9"/>
</g>
</svg>
