<?xml version="1.0" standalone="no"?>
<!DOCTYPE svg PUBLIC "-//W3C//DTD SVG 1.1//EN" "http://www.w3.org/Graphics/SVG/1.1/DTD/svg11.dtd">
<svg xmlns="http://www.w3.org/2000/svg" id="Layer_1" data-name="Layer 1" viewBox="0 0 1275.56 636.34" width="1275.56005859375" height="636.3400268554688">
  <defs>
    <style>
      .cls-1 {
        fill: #ffb519;
      }

      .cls-2 {
        fill: #4c2c92;
      }
    </style>
  </defs>
  <path class="cls-1" d="M1069.14,181.43c-59.7,59.1-117.61,80.8-154.86,74.49-50.41-8.55-87.11-21.84-192.18,2.25,43.39-42.45,82.3-54.95,109.43-50.34,37.37,6.32,64.47,16.19,143-2.04l-41.67-42.14c-51.06,47.83-91.24,44.73-101.27,43.3-11.14-1.59-67.25-21.53-150.6,7.54,33.35-32.74,56-39.32,76.84-35.78,28.6,4.85,49.36,12.41,109.51-1.55l-32.32-31.87c-39.12,36.63-69.46,33.85-77.16,32.75-8.53-1.23-50.01-17.25-113.99,5.18l132.72,132.72c69.29-64.72,124-60.8,137.63-58.84,15.2,2.15,102.04,25.29,216.03-14.93l-61.11-60.75Z"/>
  <path class="cls-2" d="M145.3,345.73h28.1v120.47h56.64v24.83h-84.74v-145.3ZM237.45,443.33c0-35.29,23.09-57.29,60.56-57.29,13.29,0,29.84,3.27,40.74,7.84v97.16h-24.18l-1.31-14.16c-7.41,11.98-17.21,17.43-31.37,17.43-26.79,0-44.44-20.26-44.44-50.98ZM312.17,445.07v-33.98c-5.23-1.31-10.46-1.96-15.03-1.96-21.35,0-32.89,11.55-32.89,32.68,0,18.52,8.93,29.41,24.18,29.41,14.16,0,23.74-10.67,23.74-26.14ZM357.7,389.3h24.4l1.31,14.16c6.32-11.11,18.3-17.43,32.68-17.43,15.25,0,25.49,6.32,30.93,18.95,6.97-12.2,19.39-18.95,35.29-18.95,24.18,0,38.12,15.47,38.12,42.26v62.74h-26.58v-58.38c0-15.47-6.1-23.09-18.52-23.09-14.16,0-22.87,10.89-22.87,28.97v52.5h-26.58v-58.38c0-14.81-6.75-23.09-18.73-23.09-14.16,0-22.87,11.11-22.87,28.97v52.5h-26.58v-101.73ZM538.95,486.03v-140.29h26.58v54.46c6.97-9.37,17.21-14.16,30.72-14.16,27.23,0,45.31,20.48,45.31,51.41,0,34.85-22.87,56.86-59.47,56.86-15.03,0-32.02-3.27-43.13-8.28ZM614.75,438.97c0-18.08-9.59-29.84-24.62-29.84s-24.62,10.89-24.62,26.36v33.77c5.23,1.52,10.67,2.18,16.56,2.18,20.48,0,32.68-11.98,32.68-32.46ZM653.31,440.71c0-32.02,21.35-54.68,51.85-54.68,32.02,0,50.76,20.91,50.76,56.64v6.1h-76.25c2.18,15.03,13.51,23.96,30.93,23.96,11.33,0,21.57-3.7,30.93-11.33l11.55,16.56c-10.02,10.02-26.79,16.34-44.44,16.34-33.33,0-55.33-21.13-55.33-53.59ZM705.81,408.26c-13.94,0-23.75,8.5-25.92,22.22h50.1c-1.52-13.72-10.67-22.22-24.18-22.22ZM777.92,456.62v-46.4h-17.43v-20.91h17.43v-33.33h26.58v33.33h30.5v20.91h-30.5v45.53c0,11.11,4.36,16.77,12.85,16.77,4.14,0,8.93-1.96,12.42-4.79l10.02,16.99c-6.54,6.1-16.34,9.59-27.23,9.59-22.44,0-34.64-13.07-34.64-37.69ZM849.15,345.73h26.58v57.08c6.75-10.67,18.73-16.77,33.33-16.77,23.31,0,37.03,15.68,37.03,42.04v62.96h-26.58v-58.38c0-15.47-6.54-23.09-19.61-23.09-15.03,0-24.18,11.11-24.18,28.97v52.5h-26.58v-145.3Z"/>
</svg>