<svg width="115" height="51" viewBox="0 0 115 51" fill="none" xmlns="http://www.w3.org/2000/svg">
<g id="Layer_1-2">
<path id="Vector" d="M46.8357 25.6034C46.7707 25.6034 46.6942 25.611 46.61 25.6261C45.8257 25.7695 44.9304 26.4945 44.4331 27.3968C44.1767 27.8612 43.8018 28.7787 44.192 29.7112C44.2839 29.934 44.4216 30.085 44.7851 30.085C45.3054 30.085 46.0093 29.7679 46.5717 29.2771C47.1495 28.7711 47.4938 28.1708 47.4938 27.6649C47.4938 26.653 47.3522 26.1433 47.2375 25.8979C47.1112 25.6298 47.0002 25.611 46.8357 25.611M44.7851 31.9653C43.6947 31.9653 42.8377 31.4065 42.4321 30.4286C41.9233 29.2053 42.0419 27.8121 42.765 26.5058C43.5416 25.1013 44.919 24.0366 46.2695 23.7911C46.4646 23.7534 46.6559 23.7383 46.8396 23.7383C48.9553 23.7383 49.3991 25.8753 49.3991 27.6687C49.3991 28.7183 48.829 29.817 47.8343 30.6853C46.9161 31.4858 45.776 31.9653 44.7889 31.9653" fill="#121212"/>
<path id="Vector_2" d="M52.8839 28.9788C52.0269 28.9788 51.4798 28.6163 51.1508 28.269C49.7008 26.7361 50.5807 23.2776 50.7759 22.6018C50.9174 22.1034 51.4416 21.8127 51.9466 21.9524C52.4516 22.0921 52.7462 22.6094 52.6046 23.1077C52.0461 25.0975 52.2067 26.6379 52.5396 26.989C52.5817 27.0343 52.7079 27.1665 53.2091 27.0646C54.07 26.8871 54.4717 25.7393 55.0264 23.8666C55.2407 23.153 55.4588 22.413 55.7495 21.6919C55.9179 21.2728 56.2354 20.4913 57.0733 20.6914C57.9073 20.8877 57.8385 21.6768 57.7849 22.2507C57.7045 23.1379 57.5209 25.2183 58.2555 26.1169C58.5845 26.5209 58.5195 27.1099 58.1101 27.4346C57.7007 27.7593 57.1039 27.6951 56.7749 27.2911C56.5338 26.9966 56.3502 26.6643 56.2124 26.3094C55.6998 27.5743 54.969 28.6163 53.5917 28.8995C53.3354 28.9523 53.0944 28.975 52.8801 28.975" fill="#121212"/>
<path id="Vector_3" d="M72.5224 22.3716C72.5224 22.3716 72.4727 22.3377 72.3962 22.2546C72.3197 22.1677 72.2125 22.0281 72.1169 21.76C71.8682 21.0728 71.9179 20.3668 71.8452 19.657C71.7611 18.8717 71.5124 17.7352 70.8773 17.2029C70.2651 16.6856 69.3929 16.527 68.62 16.7309C68.3063 16.814 68.0232 16.9612 67.7898 17.1311C67.7439 17.1651 67.7018 17.1991 67.6597 17.2331C67.7133 16.7762 67.7592 16.3307 67.7936 15.9078C67.9008 14.5562 67.9008 13.3933 67.7286 12.5136C67.6482 12.0756 67.5182 11.7094 67.3804 11.4527C67.3307 11.3432 67.2121 11.1657 67.1968 11.1468C67.1662 11.1053 67.1471 11.0826 67.1471 11.0826C66.8945 10.7391 66.4087 10.6522 66.0528 10.8901C65.72 11.1129 65.6626 11.4866 65.7736 11.8491C65.8769 12.1889 66.0567 12.4381 66.1102 12.793C66.16 13.1101 66.1906 13.533 66.1829 14.0352C66.1753 14.5373 66.137 15.115 66.0682 15.7493C65.9304 17.0216 65.6741 18.513 65.368 20.1252C65.215 20.9331 65.0543 21.7638 64.9127 22.6435C64.798 23.3495 64.5569 24.3614 64.9931 25.0032C65.1652 25.2524 65.4522 25.4299 65.7544 25.4487C66.6382 25.494 66.7912 24.4784 66.9098 23.8441C67.0705 22.9908 67.2503 22.1602 67.4684 21.3673C67.6903 20.582 67.962 19.8193 68.3101 19.2303C68.5167 18.8792 68.8764 18.3544 69.3584 18.4035C69.6109 18.4299 69.8175 18.6376 69.9132 18.8717C70.1427 19.438 70.0968 20.2007 70.1733 20.801C70.2384 21.3636 70.3417 21.8959 70.5177 22.3528C70.7357 22.9115 71.214 23.7875 71.8912 23.8668C72.7443 23.9687 73.2417 22.8927 72.5224 22.3754" fill="#121212"/>
<path id="Vector_4" d="M84.6621 13.3256C84.2336 13.2312 83.7822 13.4917 83.4302 13.6994C81.8845 14.6206 81.2571 16.4178 80.7214 18.0186C80.4536 18.8228 80.1782 19.5817 79.8071 20.3444C79.4436 20.0235 79.2408 19.5704 79.0419 19.1362C78.8429 18.6982 78.6249 18.2489 78.2499 17.9469C77.7143 17.5202 77.0945 17.6146 76.6507 18.0866C76.5971 18.1432 76.5551 18.1961 76.513 18.2452C76.3523 18.4453 76.2375 18.6227 76.1227 18.8039C76.0118 18.9814 75.9047 19.1551 75.8052 19.3288C75.7134 19.4873 75.6215 19.6497 75.5335 19.8045C75.6177 19.2985 75.6981 18.8039 75.7593 18.3547C75.8511 17.6524 75.9544 16.8784 75.7631 16.1724C75.568 15.4475 74.864 14.6168 74.0682 15.2322C73.655 15.5532 73.5823 16.1422 73.9075 16.5537C73.9075 16.5537 73.9229 16.5726 73.9535 16.6103C73.9649 16.6254 73.9535 16.6141 73.9535 16.6103C73.9535 16.6028 73.9458 16.5952 73.942 16.5877C73.9382 16.5726 73.942 16.5877 73.9458 16.5877C73.9458 16.5915 73.9535 16.5915 73.9573 16.6028C73.9917 16.6519 74.0491 16.818 74.0835 17.0936C74.2213 18.2603 74.0338 19.51 73.8616 20.6653C73.8157 20.9862 73.7622 21.3185 73.7316 21.6923C73.6971 22.0963 73.6742 22.5418 73.8846 22.9118C74.0108 23.1308 74.2213 23.312 74.4738 23.3648C74.9023 23.4555 75.3308 23.1685 75.5948 22.8212C76.2222 22.0056 76.7043 21.0617 77.2628 20.1971C77.3164 20.1141 77.37 20.0348 77.4235 19.9517C77.5192 20.1443 77.6225 20.3482 77.7334 20.552C77.8367 20.7408 77.9515 20.9296 78.0854 21.1222C78.2231 21.3147 78.3724 21.5148 78.5904 21.7187C79.0457 22.1416 79.6579 22.3454 80.2738 22.1793C80.7865 22.0396 81.1308 21.6734 81.4101 21.2467C81.544 21.0353 81.6435 20.8352 81.7315 20.6389C81.9037 20.25 82.0223 19.8838 82.137 19.5326C82.248 19.1815 82.3475 18.8455 82.4355 18.5208C82.6153 17.8752 82.7683 17.2786 82.9405 16.7651C83.2159 15.9685 83.6636 15.3153 84.226 14.6923C84.4517 14.4507 84.7386 14.2846 84.9529 14.0467C85.2398 13.7296 85.06 13.4162 84.6774 13.3256C84.6736 13.3256 84.6698 13.3256 84.6621 13.3256Z" fill="#121212"/>
<path id="Vector_5" d="M87.8489 18.0902C87.826 18.2072 87.8069 18.294 87.7686 18.3884C87.6997 18.5734 87.5964 18.7433 87.4625 18.8906C87.1947 19.1851 86.7662 19.389 86.3607 19.4154C86.1579 19.4305 85.9704 19.3965 85.8442 19.3399C85.7179 19.2795 85.6682 19.2191 85.6299 19.1284C85.5917 19.0378 85.5802 18.8755 85.6184 18.6829C85.6299 18.6301 85.6376 18.5923 85.649 18.547L85.6797 18.4413L85.7103 18.3582C85.7562 18.2299 85.7983 18.0977 85.848 17.9693C86.0393 17.4634 86.2612 16.999 86.5099 16.6139C86.7547 16.225 87.0378 15.923 87.2865 15.7644C87.497 15.6247 87.8107 15.5077 88.002 15.7418C88.1129 15.8777 88.1359 16.0589 88.1397 16.2288C88.1512 16.7121 88.0096 17.1802 87.9255 17.6484C87.8987 17.7919 87.8757 17.9391 87.8489 18.0864M90.7375 19.3588L90.7298 19.3512C90.7298 19.3512 90.7184 19.3323 90.6839 19.2493C90.6495 19.1662 90.6036 19.0114 90.5538 18.7811C90.5003 18.5546 90.4582 18.2525 90.4123 17.8976C90.3511 17.3992 90.3319 16.8971 90.2631 16.3987C90.2019 15.9645 90.1483 15.3642 89.7581 15.0886C89.6777 15.0357 89.6165 14.998 89.4902 14.9602C89.4749 14.9602 89.4596 14.9564 89.4443 14.9527C89.3525 14.8016 89.2339 14.6506 89.077 14.5071C88.8743 14.3221 88.6103 14.1598 88.2966 14.0654C87.9828 13.971 87.6309 13.9521 87.298 14.0201C86.9652 14.0843 86.6553 14.2202 86.3836 14.3939C86.112 14.5675 85.8748 14.779 85.6682 15.0055C85.4578 15.232 85.2741 15.4812 85.1096 15.738C84.7806 16.2552 84.5166 16.814 84.2985 17.3992C84.0192 18.1468 83.7897 18.9472 84.0957 19.7212C84.8533 21.6128 87.5237 21.2201 88.6715 19.978C88.836 19.8005 88.9776 19.6004 89.0923 19.389C89.2148 19.7552 89.3793 20.1932 89.7351 20.4008C90.4008 20.7859 91.1545 19.9968 90.7337 19.3625" fill="#121212"/>
<path id="Vector_6" d="M99.0247 11.0519C98.9749 10.7159 98.6574 10.4818 98.3131 10.5309C98.0873 10.5649 97.8616 10.6064 97.6359 10.6593C97.4102 10.7084 97.1883 10.7726 96.9625 10.8405C96.7406 10.9123 96.5111 10.9915 96.2853 11.0822C94.6134 11.7769 93.3356 13.2758 92.9874 15.0427C92.9568 14.7067 92.9186 14.3631 92.7464 14.0724C92.5742 13.7855 92.2184 13.5703 91.8932 13.6684C91.6369 13.7439 91.4647 13.9893 91.4035 14.2423C91.3423 14.4953 91.3729 14.7633 91.4035 15.0239C91.5642 16.3189 91.7899 17.6101 92.073 18.8863C92.1304 19.143 92.1916 19.4073 92.3255 19.6338C92.4594 19.8642 92.6775 20.0567 92.9415 20.102C93.3011 20.1624 93.6608 19.917 93.8329 19.5961C94.0855 19.1279 94.0242 18.5087 94.0625 17.9915C94.1658 16.6813 94.5331 15.3486 95.2906 14.2536C95.788 13.5401 96.4881 13.0115 97.2189 12.5471C97.7124 12.2337 99.128 11.7504 99.0209 11.0444" fill="#121212"/>
<path id="Vector_7" d="M111.856 20.1666C111.811 20.11 111.761 20.0571 111.711 20.0043C111.466 19.7551 111.156 19.5852 110.904 19.3549C110.655 19.1246 110.429 18.8527 110.207 18.5998C109.989 18.3543 109.76 18.0749 109.523 17.7767C109.282 17.4784 109.037 17.1537 108.784 16.8101C108.279 16.1305 107.755 15.3867 107.242 14.6316C106.202 13.1327 105.207 11.5923 104.472 10.4332C104.231 10.0556 104.021 9.71959 103.841 9.43642C104.002 9.68939 106.125 8.33773 106.32 8.1867C107.418 7.34853 108.249 6.21208 108.757 4.94348C109.021 4.28653 109.523 3.21427 108.861 2.6366C108.497 2.31945 107.866 2.33456 107.548 2.69701C107.219 3.07079 107.265 3.61448 107.112 4.05622C106.955 4.50929 106.726 4.96614 106.473 5.3739C105.915 6.27249 105.119 7.05026 104.143 7.49577C103.971 7.58639 103.795 7.65057 103.635 7.71476C103.577 7.73364 103.524 7.75251 103.47 7.77139C103.814 6.14789 103.826 4.49419 103.52 2.86314C103.436 2.4818 103.344 2.15333 103.256 1.88526C103.168 1.6172 103.087 1.40954 103.03 1.26984C102.973 1.13015 102.942 1.05841 102.942 1.05841C102.751 0.594014 102.215 0.37503 101.745 0.563809C100.865 0.914938 101.293 1.70781 101.465 2.33078C101.703 3.20294 101.836 4.10153 101.859 5.00012C101.913 7.03893 101.27 8.76814 100.624 10.6559C99.9732 12.5513 99.3649 14.4693 98.9517 16.4326C98.7489 17.3991 98.3242 18.9056 98.7298 19.857C99.055 20.6159 100.184 20.5933 100.463 19.8117C100.578 19.4908 100.551 19.1397 100.536 18.7999C100.505 18.1467 100.67 17.4482 100.803 16.8064C101.14 15.1564 101.791 12.9439 102.556 10.7805L102.632 10.5653C102.755 10.7805 102.892 11.0146 103.042 11.2638C103.749 12.4569 104.71 14.0426 105.724 15.6019C106.236 16.3797 106.764 17.1462 107.281 17.8597C107.537 18.2146 107.793 18.5582 108.042 18.8829C108.291 19.2038 108.536 19.5059 108.773 19.7853C109.006 20.0647 109.236 20.3139 109.458 20.5328C109.821 20.8915 110.253 21.3031 110.735 21.4994C111.145 21.6655 111.646 21.556 111.937 21.22C112.243 20.8651 112.101 20.4838 111.841 20.1591" fill="#121212"/>
<path id="Vector_8" d="M64.9859 15.2053C64.6607 14.7975 64.0638 14.7295 63.6506 15.0505C63.4325 15.2204 63.2183 15.3676 63.004 15.4922C63.0499 15.2166 63.0882 14.9485 63.115 14.6956C63.1341 14.5106 63.1494 14.3369 63.1571 14.167C63.1724 13.6762 63.1992 13.1098 63.1188 12.6228C63.0844 12.4189 63.0155 12.215 62.9046 12.0413C62.8319 11.9281 62.7401 11.8261 62.6329 11.7431C62.3536 11.5354 61.9443 11.4901 61.6612 11.6902C61.4928 11.811 61.3819 12.0074 61.3513 12.2112C61.3092 12.502 61.4431 12.7625 61.4622 13.0494C61.4737 13.208 61.4813 13.4156 61.466 13.6573C61.4546 13.8989 61.4316 14.1821 61.3819 14.4879C61.3053 15.0089 61.1676 15.613 60.9763 16.2511C60.7621 16.3002 60.5402 16.3455 60.3144 16.3946C59.7865 16.5041 59.2355 16.6211 58.6425 16.7986C58.1413 16.9496 57.8582 17.4744 58.0113 17.969C58.1375 18.373 58.5124 18.6335 58.9218 18.6335C59.0136 18.6335 59.1055 18.6184 59.1973 18.592C59.5569 18.4825 59.9127 18.3994 60.2647 18.3239C60.1729 18.5844 60.0811 18.8449 59.9931 19.1092C59.7023 19.9927 59.423 20.8988 59.2508 21.8012C59.1628 22.2543 59.1016 22.7036 59.0825 23.1415C59.0557 23.5795 59.071 24.0024 59.1131 24.395C59.1514 24.7877 59.2279 25.1464 59.3121 25.4597C59.4842 26.0638 59.6985 26.8114 60.4675 26.8567C60.9916 26.8869 61.4622 26.4716 61.5502 25.9732C61.6573 25.3616 61.3436 24.7764 61.2786 24.176C61.248 23.8929 61.2403 23.5795 61.2518 23.2397C61.2633 22.8999 61.3015 22.5337 61.3551 22.1486C61.466 21.3783 61.6612 20.5288 61.8984 19.6793C62.017 19.2527 62.147 18.826 62.2733 18.407C62.3345 18.2069 62.3995 17.9992 62.4608 17.7915C63.2221 17.5424 64.0064 17.1686 64.8366 16.5229C65.2498 16.202 65.3187 15.613 64.9935 15.2053" fill="#121212"/>
<path id="Vector_9" d="M40.2245 14.7371C39.8955 14.5521 39.6238 14.2841 39.2527 14.1633C38.4837 13.9065 37.6229 14.1708 36.873 14.3747C33.0624 15.3941 29.3092 16.9043 25.7282 18.5316C23.8841 19.3698 21.822 20.1929 20.1806 21.3859C19.4614 21.9107 18.7039 22.6508 18.7268 23.5984C18.7727 25.5806 21.2213 25.5957 22.6866 25.7316C23.9683 25.8525 25.2461 25.9808 26.5278 26.1243C29.7951 26.4868 33.2881 26.6718 36.4254 27.7025C39.5626 28.7332 41.0088 32.1124 39.7577 35.2197C38.9466 37.2396 37.2632 38.7574 35.5569 40.0562C33.028 41.9855 30.3613 43.6166 27.5187 45.0513C24.3585 46.6483 21.0874 48.0604 17.6862 49.0836C14.4456 50.0577 11.1209 50.877 7.7159 50.322C6.19703 50.0728 4.63606 49.6424 3.35056 48.8004C2.75755 48.4153 2.21428 47.932 1.78195 47.3733C1.3458 46.8182 1.0359 46.1877 0.836955 45.5685C-0.437066 41.5173 2.03063 37.4171 5.09517 34.8346C5.25968 34.6949 5.34768 34.6269 5.34768 34.6269C5.48541 34.5212 5.68053 34.5476 5.78765 34.6835C5.868 34.7855 5.87182 34.9214 5.81444 35.0233L5.80678 35.0347C5.80678 35.0347 5.75322 35.1291 5.6461 35.299C5.59253 35.382 5.52749 35.4915 5.45098 35.6199C5.37063 35.7445 5.28646 35.8955 5.19082 36.0654C4.03157 38.1306 2.60452 40.1204 2.51269 42.5556C2.44 44.5038 3.25492 46.3803 5.03396 47.3506C7.69295 48.8004 10.7039 48.5173 13.5695 47.9283C20.3031 46.5389 27.0864 43.458 32.6722 39.5012C33.4029 38.9839 34.1145 38.4402 34.8032 37.8701C36.7697 36.2391 39.7654 32.8335 37.0337 30.4247C35.7864 29.326 33.8199 29.1938 32.2398 28.9069C30.1127 28.518 27.9472 28.3104 25.7971 28.0876C22.7402 27.7742 16.1482 28.0347 16.7565 23.2851C16.9325 21.8994 17.8354 20.6875 18.9449 19.8229C20.5862 18.5429 22.7019 17.7463 24.5919 16.8892C28.3681 15.1751 32.3355 13.5176 36.3565 12.4567C37.3895 12.1849 38.4837 12.0263 39.5473 12.1962C40.389 12.3283 41.8773 12.7738 42.1298 13.7102C42.4205 14.7862 41.4488 15.1525 40.5459 14.8731C40.4311 14.8353 40.324 14.7862 40.2245 14.7296" fill="#121212"/>
<path id="Vector_10" d="M43.2734 41.0683C43.7248 40.8644 44.4747 40.5586 44.9261 40.351C45.8329 39.9357 46.7473 39.543 47.6693 39.173C61.4081 33.6342 76.5203 30.0021 91.2653 28.3824C95.5962 27.9067 99.6784 27.7368 103.194 27.9029C106.707 28.0652 109.649 28.5296 111.699 29.3187C112.721 29.7189 113.551 30.2022 114.056 30.8743C114.309 31.2027 114.439 31.5841 114.477 31.8446C114.496 31.9767 114.5 32.0787 114.496 32.1504C114.496 32.2184 114.492 32.2523 114.492 32.2523C114.473 32.7809 113.976 33.2189 113.436 33.1547C113.18 33.1245 112.943 32.981 112.797 32.7734C112.648 32.5544 112.606 32.2863 112.51 32.0447C112.296 31.5086 111.512 31.2443 111.007 31.0442C110.158 30.7081 109.021 30.4099 107.682 30.1796C106.343 29.9492 104.797 29.7869 103.103 29.6963C99.709 29.5188 95.7072 29.6396 91.4413 30.055C76.6963 31.4935 61.8404 35.2351 47.9218 40.1962C46.973 40.536 44.4785 41.4685 43.5488 41.8574C43.1548 42.0198 42.3322 42.4426 42.1715 42.0689C41.984 41.6271 42.9443 41.2269 43.2734 41.0759" fill="#121212"/>
<path id="Vector_11" d="M71.222 48.9177C68.6587 48.9177 67.1475 47.2376 67.1475 44.3002C67.1475 41.3628 68.6472 39.6826 71.3827 39.6826C73.6209 39.6826 74.9523 40.8379 75.0709 42.8126H73.3071C73.1618 41.8271 72.4961 41.291 71.3827 41.291C69.8103 41.291 68.9762 42.3369 68.9762 44.3002C68.9762 46.2635 69.8332 47.2829 71.3215 47.2829C72.4119 47.2829 73.1235 46.709 73.3301 45.6631H75.0824C74.9485 47.6378 73.4717 48.9139 71.2259 48.9139" fill="#121212"/>
<path id="Vector_12" d="M79.2911 47.4456C80.2475 47.4456 80.7908 46.7282 80.7908 45.4369C80.7908 44.1457 80.2475 43.4397 79.2911 43.4397C78.3346 43.4397 77.7798 44.1457 77.7798 45.4369C77.7798 46.7282 78.3384 47.4456 79.2911 47.4456ZM79.2911 41.9785C81.3111 41.9785 82.5431 43.2811 82.5431 45.4369C82.5431 47.5928 81.3111 48.8954 79.2911 48.8954C77.271 48.8954 76.0391 47.5928 76.0391 45.4369C76.0391 43.2811 77.2748 41.9785 79.2911 41.9785Z" fill="#121212"/>
<path id="Vector_13" d="M89.437 48.6756H87.7574V47.9091C87.2715 48.5321 86.6211 48.8455 85.8101 48.8455C84.3945 48.8455 83.6943 48.1017 83.6943 46.6179V42.208H85.4122V46.1157C85.4122 46.9917 85.6647 47.3957 86.4031 47.3957C87.2027 47.3957 87.723 46.886 87.723 46.0327V42.208H89.4408V48.6756H89.437Z" fill="#121212"/>
<path id="Vector_14" d="M90.9403 42.208H92.6199V42.9744C93.1058 42.3515 93.7562 42.0381 94.5673 42.0381C95.9829 42.0381 96.683 42.7819 96.683 44.2657V48.6756H94.9652V44.7678C94.9652 43.8919 94.7127 43.4766 93.9743 43.4766C93.1747 43.4766 92.6543 43.9863 92.6543 44.8396V48.6756H90.9365V42.208H90.9403Z" fill="#121212"/>
<path id="Vector_15" d="M103.738 46.2411C103.593 47.8873 102.468 48.8954 100.823 48.8954C98.9712 48.8954 97.835 47.6155 97.835 45.4369C97.835 43.2584 98.998 41.9785 100.884 41.9785C102.552 41.9785 103.604 42.93 103.727 44.5006H102.02C101.925 43.8172 101.523 43.4397 100.896 43.4397C100.039 43.4397 99.6255 44.123 99.6255 45.4634C99.6255 46.7169 100.085 47.4002 100.896 47.4002C101.538 47.4002 101.925 47.0114 102.043 46.2411H103.738Z" fill="#121212"/>
<path id="Vector_16" d="M104.863 42.2088H106.581V48.6763H104.863V42.2088ZM104.863 39.917H106.581V41.4876H104.863V39.917Z" fill="#121212"/>
<path id="Vector_17" d="M109.894 39.917H108.176V48.6763H109.894V39.917Z" fill="#121212"/>
</g>
</svg>
